REM DIRINDEX 1\2,1\3\5,1\3\6,1\4\7,1\4\8
REM DIRNAME folder01,folder02,folder03,folder04,folder05,folder06,folder07,folder08
TITLE ""
FILE "EG_E1.5_11.mp3" MP3
  TRACK 01 AUDIO
    TITLE "0:"
    INDEX 01 00:00:00
  TRACK 02 AUDIO
    TITLE "2:cjc139_0381"
    INDEX 01 00:00:17
  TRACK 03 AUDIO
    TITLE "0:"
    INDEX 01 00:02:53
  TRACK 04 AUDIO
    TITLE "2:cjc139_0382"
    INDEX 01 00:03:74
  TRACK 05 AUDIO
    TITLE "0:"
    INDEX 01 00:06:69
  TRACK 06 AUDIO
    TITLE "2:cjc139_0383"
    INDEX 01 00:08:15
  TRACK 07 AUDIO
    TITLE "0:"
    INDEX 01 00:11:29
  TRACK 08 AUDIO
    TITLE "2:cjc139_0384"
    INDEX 01 00:12:50
  TRACK 09 AUDIO
    TITLE "0:"
    INDEX 01 00:15:60
  TRACK 10 AUDIO
    TITLE "2:cjc139_0385"
    INDEX 01 00:17:08
  TRACK 11 AUDIO
    TITLE "0:"
    INDEX 01 00:19:50
  TRACK 12 AUDIO
    TITLE "2:cjc139_0386"
    INDEX 01 00:20:69
  TRACK 13 AUDIO
    TITLE "0:"
    INDEX 01 00:24:08
  TRACK 14 AUDIO
    TITLE "2:cjc139_0387"
    INDEX 01 00:25:31
  TRACK 15 AUDIO
    TITLE "0:"
    INDEX 01 00:28:02
  TRACK 16 AUDIO
    TITLE "2:cjc139_0388"
    INDEX 01 00:29:23
  TRACK 17 AUDIO
    TITLE "0:"
    INDEX 01 00:32:05
  TRACK 18 AUDIO
    TITLE "2:cjc139_0389"
    INDEX 01 00:33:26
  TRACK 19 AUDIO
    TITLE "0:"
    INDEX 01 00:36:48
  TRACK 20 AUDIO
    TITLE "2:cjc139_0390"
    INDEX 01 00:37:71
  TRACK 21 AUDIO
    TITLE "0:"
    INDEX 01 00:40:40
  TRACK 22 AUDIO
    TITLE "2:cjc139_0391"
    INDEX 01 00:41:61
  TRACK 23 AUDIO
    TITLE "0:"
    INDEX 01 00:44:52
  TRACK 24 AUDIO
    TITLE "2:cjc139_0392"
    INDEX 01 00:45:73
  TRACK 25 AUDIO
    TITLE "0:"
    INDEX 01 00:48:06
  TRACK 26 AUDIO
    TITLE "2:cjc139_0393"
    INDEX 01 00:49:27
  TRACK 27 AUDIO
    TITLE "0:"
    INDEX 01 00:51:62
  TRACK 28 AUDIO
    TITLE "2:cjc139_0394"
    INDEX 01 00:53:08
  TRACK 29 AUDIO
    TITLE "0:"
    INDEX 01 00:56:06
  TRACK 30 AUDIO
    TITLE "2:cjc139_0395"
    INDEX 01 00:57:27
  TRACK 31 AUDIO
    TITLE "0:"
    INDEX 01 01:00:62
  TRACK 32 AUDIO
    TITLE "2:cjc139_0396"
    INDEX 01 01:02:06
  TRACK 33 AUDIO
    TITLE "0:"
    INDEX 01 01:05:26
  TRACK 34 AUDIO
    TITLE "2:cjc139_0397"
    INDEX 01 01:06:47
  TRACK 35 AUDIO
    TITLE "0:"
    INDEX 01 01:10:04
  TRACK 36 AUDIO
    TITLE "2:cjc139_0398"
    INDEX 01 01:11:25
  TRACK 37 AUDIO
    TITLE "0:"
    INDEX 01 01:14:55
  TRACK 38 AUDIO
    TITLE "2:cjc139_0399"
    INDEX 01 01:16:03
  TRACK 39 AUDIO
    TITLE "0:"
    INDEX 01 01:19:03
  TRACK 40 AUDIO
    TITLE "2:cjc139_0400"
    INDEX 01 01:20:24
  TRACK 41 AUDIO
    TITLE "0:"
    INDEX 01 01:23:56
  TRACK 42 AUDIO
    TITLE "2:cjc139_0401"
    INDEX 01 01:25:02
  TRACK 43 AUDIO
    TITLE "0:"
    INDEX 01 01:28:16
  TRACK 44 AUDIO
    TITLE "2:cjc139_0402"
    INDEX 01 01:29:37
  TRACK 45 AUDIO
    TITLE "0:"
    INDEX 01 01:32:13
  TRACK 46 AUDIO
    TITLE "2:cjc139_0403"
    INDEX 01 01:33:34
  TRACK 47 AUDIO
    TITLE "0:"
    INDEX 01 01:36:56
  TRACK 48 AUDIO
    TITLE "2:cjc139_0404"
    INDEX 01 01:38:02
  TRACK 49 AUDIO
    TITLE "0:"
    INDEX 01 01:40:74
  TRACK 50 AUDIO
    TITLE "2:cjc139_0405"
    INDEX 01 01:42:20
  TRACK 51 AUDIO
    TITLE "0:"
    INDEX 01 01:45:67
  TRACK 52 AUDIO
    TITLE "2:cjc139_0406"
    INDEX 01 01:47:15
  TRACK 53 AUDIO
    TITLE "0:"
    INDEX 01 01:49:55
  TRACK 54 AUDIO
    TITLE "2:cjc139_0407"
    INDEX 01 01:51:03
  TRACK 55 AUDIO
    TITLE "0:"
    INDEX 01 01:54:15
  TRACK 56 AUDIO
    TITLE "2:cjc139_0408"
    INDEX 01 01:55:36
  TRACK 57 AUDIO
    TITLE "0:"
    INDEX 01 01:58:72
  TRACK 58 AUDIO
    TITLE "2:cjc139_0409"
    INDEX 01 02:00:20
  TRACK 59 AUDIO
    TITLE "0:"
    INDEX 01 02:03:38
  TRACK 60 AUDIO
    TITLE "2:cjc139_0410"
    INDEX 01 02:04:59
  TRACK 61 AUDIO
    TITLE "0:"
    INDEX 01 02:07:08
  TRACK 62 AUDIO
    TITLE "2:cjc139_0411"
    INDEX 01 02:08:29
  TRACK 63 AUDIO
    TITLE "0:"
    INDEX 01 02:10:22
  TRACK 64 AUDIO
    TITLE "2:cjc139_0412"
    INDEX 01 02:11:41
  TRACK 65 AUDIO
    TITLE "0:"
    INDEX 01 02:14:59
  TRACK 66 AUDIO
    TITLE "2:cjc139_0413"
    INDEX 01 02:16:07
  TRACK 67 AUDIO
    TITLE "0:"
    INDEX 01 02:19:07
  TRACK 68 AUDIO
    TITLE "2:cjc139_0414"
    INDEX 01 02:20:30
  TRACK 69 AUDIO
    TITLE "0:"
    INDEX 01 02:22:35
  TRACK 70 AUDIO
    TITLE "2:cjc139_0415"
    INDEX 01 02:23:54
  TRACK 71 AUDIO
    TITLE "0:"
    INDEX 01 02:26:64
  TRACK 72 AUDIO
    TITLE "2:cjc139_0416"
    INDEX 01 02:28:08
  TRACK 73 AUDIO
    TITLE "0:"
    INDEX 01 02:31:10
  TRACK 74 AUDIO
    TITLE "2:cjc139_0417"
    INDEX 01 02:32:69
  TRACK 75 AUDIO
    TITLE "0:"
    INDEX 01 02:35:59
  TRACK 76 AUDIO
    TITLE "2:cjc139_0418"
    INDEX 01 02:37:07
  TRACK 77 AUDIO
    TITLE "0:"
    INDEX 01 02:40:25
  TRACK 78 AUDIO
    TITLE "2:cjc139_0419"
    INDEX 01 02:41:48
  TRACK 79 AUDIO
    TITLE "0:"
    INDEX 01 02:44:07
  TRACK 80 AUDIO
    TITLE "2:cjc139_0420"
    INDEX 01 02:45:32
  TRACK 81 AUDIO
    TITLE "0:"
    INDEX 01 02:47:72
  TRACK 82 AUDIO
    TITLE "2:cjc139_0421"
    INDEX 01 02:49:18
  TRACK 83 AUDIO
    TITLE "0:"
    INDEX 01 02:53:14
  TRACK 84 AUDIO
    TITLE "2:cjc139_0422"
    INDEX 01 02:54:37
  TRACK 85 AUDIO
    TITLE "0:"
    INDEX 01 02:57:45
  TRACK 86 AUDIO
    TITLE "2:cjc139_0423"
    INDEX 01 02:58:68
  TRACK 87 AUDIO
    TITLE "0:"
    INDEX 01 03:01:35
  TRACK 88 AUDIO
    TITLE "2:cjc139_0424"
    INDEX 01 03:02:58
  TRACK 89 AUDIO
    TITLE "0:"
    INDEX 01 03:06:54
  TRACK 90 AUDIO
    TITLE "2:cjc139_0425"
    INDEX 01 03:08:00
  TRACK 91 AUDIO
    TITLE "0:"
    INDEX 01 03:11:35
  TRACK 92 AUDIO
    TITLE "2:cjc139_0426"
    INDEX 01 03:12:58
  TRACK 93 AUDIO
    TITLE "0:"
    INDEX 01 03:16:21
  TRACK 94 AUDIO
    TITLE "2:cjc139_0427"
    INDEX 01 03:17:44
  TRACK 95 AUDIO
    TITLE "0:"
    INDEX 01 03:21:44
  TRACK 96 AUDIO
    TITLE "2:cjc139_0428"
    INDEX 01 03:22:66
  TRACK 97 AUDIO
    TITLE "0:"
    INDEX 01 03:25:24
  TRACK 98 AUDIO
    TITLE "2:cjc139_0429"
    INDEX 01 03:26:45
  TRACK 99 AUDIO
    TITLE "0:"
    INDEX 01 03:29:20
  TRACK 100 AUDIO
    TITLE "2:cjc139_0430"
    INDEX 01 03:30:41
  TRACK 101 AUDIO
    TITLE "0:"
    INDEX 01 03:34:42
  TRACK 102 AUDIO
    TITLE "2:cjc139_0431"
    INDEX 01 03:35:65
  TRACK 103 AUDIO
    TITLE "0:"
    INDEX 01 03:39:10
  TRACK 104 AUDIO
    TITLE "2:cjc139_0432"
    INDEX 01 03:40:33
  TRACK 105 AUDIO
    TITLE "0:"
    INDEX 01 03:44:09
  TRACK 106 AUDIO
    TITLE "2:cjc139_0433"
    INDEX 01 03:45:32
  TRACK 107 AUDIO
    TITLE "0:"
    INDEX 01 03:47:59
  TRACK 108 AUDIO
    TITLE "2:cjc139_0434"
    INDEX 01 03:49:05
  TRACK 109 AUDIO
    TITLE "0:"
    INDEX 01 03:52:72
